<svg xmlns="http://www.w3.org/2000/svg" version="1.1" xmlns:xlink="http://www.w3.org/1999/xlink" width="80" height="512" x="0" y="0" viewBox="0 0 512 512" style="enable-background:new 0 0 512 512" xml:space="preserve" class=""><g><circle cx="256" cy="256" r="256" fill="#16213e" opacity="1" data-original="#000000" class=""></circle><g xmlns:cc="http://creativecommons.org/ns#" xmlns:dc="http://purl.org/dc/elements/1.1/" xmlns:inkscape="http://www.inkscape.org/namespaces/inkscape" xmlns:rdf="http://www.w3.org/1999/02/22-rdf-syntax-ns#" xmlns:sodipodi="http://sodipodi.sourceforge.net/DTD/sodipodi-0.dtd" xmlns:svg="http://www.w3.org/2000/svg" inkscape:version="0.48.1 r9760" sodipodi:docname="twitter_bootstrap_logo.svg"><path fill="#ffffff" d="M410 358.667C410 386.9 386.9 410 358.667 410H153.333C125.1 410 102 386.9 102 358.667V153.333C102 125.1 125.1 102 153.333 102h205.333C386.9 102 410 125.1 410 153.333z" opacity="1" data-original="#ffffff" class=""></path><path d="M185.693 168.935h87.317c16.104 0 29.039 3.674 38.752 11.072s14.595 18.52 14.595 33.467c0 9.059-2.214 16.809-6.643 23.251s-10.77 11.475-19.023 14.997v.503c11.072 2.365 19.477 7.599 25.163 15.702 5.687 8.153 8.556 18.319 8.556 30.599 0 7.046-1.258 13.639-3.775 19.728-2.516 6.14-6.442 11.424-11.827 15.853s-12.229 7.952-20.634 10.569-18.369 3.925-29.944 3.925h-82.536V168.935zm31.455 75.238h51.333c7.549 0 13.84-2.114 18.873-6.442s7.549-10.468 7.549-18.52c0-9.059-2.265-15.45-6.794-19.124s-11.072-5.536-19.628-5.536h-51.333zm0 78.762h55.611c9.562 0 17.01-2.466 22.245-7.448 5.284-4.932 7.952-11.978 7.952-21.037 0-8.908-2.617-15.702-7.952-20.533s-12.682-7.147-22.245-7.147h-55.611z" fill="#16213e" opacity="1" data-original="#000000" class=""></path></g></g></svg>